<svg xmlns="http://www.w3.org/2000/svg" version="1.1" xmlns:xlink="http://www.w3.org/1999/xlink" width="36" height="36"><svg version="1.1" xmlns="http://www.w3.org/2000/svg" xmlns:xlink="http://www.w3.org/1999/xlink" x="0px" y="0px" viewBox="0 0 36 36" style="enable-background:new 0 0 36 36;" xml:space="preserve">
  <style type="text/css">
    .fg { fill: #E43F6F; } 
    .label {
      font-family: "Courier New", monospace;
      font-size: 7px;
      font-weight: bold;
      fill: #5e4352;
      text-anchor: middle;
      dominant-baseline: middle;
    }
  </style>

  <!-- Transparent background -->
  <rect width="36" height="36" fill="none"></rect>

  <!-- Centered gift icon -->
  <g id="SvgjsG1001" class="fg" transform="translate(18,18) scale(1) translate(-18,-18)">
    <path d="M31.3,9.9C30.3,9.2,29,9.4,29,9.4c0.5-1.2,0.1-2,0.1-2c-1,1.7-4,3.5-6,4c1.3-0.9,2.4-2.2,1.9-3.6
      c-0.9-2.4-5.3-3.6-7.6,0.1c-1.8-3.6-6.1-3.1-7.3-0.9c-0.7,1.4,0.1,2.8,1.3,3.9c-2-1.1-4-2.3-5.1-4.1c0,0-0.5,0.7-0.2,2
      c0,0-1.3-0.4-2.3,0.1c0,0,1.9,1.3,4.8,3H4.6v3.2h1.7v14.6h21.5V15.1h1.7V12h-1.7C29.4,11.2,31.3,9.9,31.3,9.9z M22.5,8.1
      c0.9,1.1-0.9,2.8-2.2,3.9h-2c0-0.7-0.1-1.4-0.2-1.9C19.3,7.5,21.4,6.7,22.5,8.1z M14.1,11.8c-1.2-1.3-2.6-3.2-1.6-4.1
      c1.2-1.1,3.1-0.1,3.9,2.3c-0.2,0.6-0.3,1.2-0.4,1.9h-1.3C14.6,11.9,14.4,11.9,14.1,11.8z"></path>
  </g>

  <!-- Centered label -->
  <text x="47%" y="55%" class="label">{api}</text>
</svg><style>@media (prefers-color-scheme: light) { :root { filter: none; } }
@media (prefers-color-scheme: dark) { :root { filter: none; } }
</style></svg>