<?xml version="1.0" encoding="utf-8"?><!-- Uploaded to: SVG Repo, www.svgrepo.com, Generator: SVG Repo Mixer Tools -->
<svg width="800px" height="800px" viewBox="0 0 24 24" fill="none" xmlns="http://www.w3.org/2000/svg">
<path d="M17.1103 10.2002C17.2217 10.5992 17.6354 10.8323 18.0343 10.721C18.4333 10.6096 18.6665 10.196 18.5551 9.79698L17.1103 10.2002ZM16.1752 7.0486L16.7219 6.53511L16.7213 6.5345L16.1752 7.0486ZM12.7832 5.1336L12.9384 4.39985L12.937 4.39955L12.7832 5.1336ZM8.96021 5.5336L8.65842 4.847L8.65767 4.84733L8.96021 5.5336ZM5.99036 8.1096L5.35543 7.71039L5.35542 7.71041L5.99036 8.1096ZM6.81326 16.9486L7.3621 16.4375L7.36177 16.4371L6.81326 16.9486ZM15.168 17.8196L15.6023 18.4311L15.6025 18.4309L15.168 17.8196ZM18.3046 14.9494C18.4547 14.5633 18.2634 14.1287 17.8773 13.9786C17.4912 13.8285 17.0566 14.0198 16.9065 14.4059L18.3046 14.9494ZM17.1057 9.81439C17.0039 10.2159 17.247 10.6239 17.6485 10.7256C18.05 10.8274 18.458 10.5843 18.5597 10.1828L17.1057 9.81439ZM19.252 7.45082C19.3537 7.0493 19.1107 6.64132 18.7092 6.53958C18.3077 6.43784 17.8997 6.68086 17.7979 7.08239L19.252 7.45082ZM17.6282 10.7202C18.0267 10.8331 18.4413 10.6016 18.5543 10.2031C18.6672 9.80459 18.4357 9.38997 18.0372 9.27702L17.6282 10.7202ZM15.4544 8.54502C15.0559 8.43208 14.6413 8.66358 14.5284 9.0621C14.4154 9.46061 14.6469 9.87524 15.0454 9.98818L15.4544 8.54502ZM11.475 9.9986C11.475 9.58439 11.1392 9.2486 10.725 9.2486C10.3107 9.2486 9.97496 9.58439 9.97496 9.9986H11.475ZM10.725 12.9986H9.97496C9.97496 13.4128 10.3107 13.7486 10.725 13.7486V12.9986ZM13.65 13.7486C14.0642 13.7486 14.4 13.4128 14.4 12.9986C14.4 12.5844 14.0642 12.2486 13.65 12.2486V13.7486ZM18.5551 9.79698C18.2138 8.5741 17.5849 7.45389 16.7219 6.53511L15.6286 7.5621C16.3241 8.30252 16.8334 9.2081 17.1103 10.2002L18.5551 9.79698ZM16.7213 6.5345C15.7009 5.45063 14.3829 4.70549 12.9384 4.39985L12.6279 5.86736C13.7692 6.10885 14.8156 6.6986 15.6291 7.5627L16.7213 6.5345ZM12.937 4.39955C11.4991 4.09822 10.006 4.25467 8.65842 4.847L9.262 6.22021C10.3241 5.75337 11.4986 5.6307 12.6294 5.86766L12.937 4.39955ZM8.65767 4.84733C7.30106 5.44538 6.15217 6.44321 5.35543 7.71039L6.62528 8.50881C7.26508 7.49125 8.18413 6.69538 9.26275 6.21988L8.65767 4.84733ZM5.35542 7.71041C3.42339 10.7834 3.79648 14.8132 6.26474 17.4601L7.36177 16.4371C5.36064 14.2911 5.05304 11.0095 6.62529 8.5088L5.35542 7.71041ZM6.26442 17.4598C8.71547 20.0915 12.6788 20.5077 15.6023 18.4311L14.7337 17.2082C12.428 18.8459 9.30467 18.5233 7.3621 16.4375L6.26442 17.4598ZM15.6025 18.4309C16.8196 17.5659 17.7584 16.3542 18.3046 14.9494L16.9065 14.4059C16.465 15.5415 15.7082 16.5155 14.7335 17.2083L15.6025 18.4309ZM18.5597 10.1828L19.252 7.45082L17.7979 7.08239L17.1057 9.81439L18.5597 10.1828ZM18.0372 9.27702L15.4544 8.54502L15.0454 9.98818L17.6282 10.7202L18.0372 9.27702ZM9.97496 9.9986V12.9986H11.475V9.9986H9.97496ZM10.725 13.7486H13.65V12.2486H10.725V13.7486Z" fill="#323845"/>
</svg>