<?xml version="1.0" encoding="utf-8"?><!-- Uploaded to: SVG Repo, www.svgrepo.com, Generator: SVG Repo Mixer Tools -->
<svg width="800px" height="800px" viewBox="0 -0.5 25 25" fill="none" xmlns="http://www.w3.org/2000/svg">
<path fill-rule="evenodd" clip-rule="evenodd" d="M13.667 18.086C13.6891 18.5672 13.3181 18.9757 12.837 19H11.164C10.6829 18.9757 10.3119 18.5672 10.334 18.086V16.311C7.97523 15.4454 6.63685 12.9522 7.21885 10.508C7.80086 8.06376 10.1192 6.44131 12.615 6.73167C15.1107 7.02203 16.9947 9.13341 17 11.646C16.9934 13.7513 15.6565 15.6224 13.667 16.311V18.086Z" stroke="#323845" stroke-width="1.5" stroke-linecap="round" stroke-linejoin="round"/>
<path d="M13.667 17.061C14.0812 17.061 14.417 16.7252 14.417 16.311C14.417 15.8968 14.0812 15.561 13.667 15.561V17.061ZM10.333 15.561C9.91879 15.561 9.583 15.8968 9.583 16.311C9.583 16.7252 9.91879 17.061 10.333 17.061V15.561ZM21.5 12.396C21.9142 12.396 22.25 12.0602 22.25 11.646C22.25 11.2318 21.9142 10.896 21.5 10.896V12.396ZM19.5 10.896C19.0858 10.896 18.75 11.2318 18.75 11.646C18.75 12.0602 19.0858 12.396 19.5 12.396V10.896ZM4.5 12.396C4.91421 12.396 5.25 12.0602 5.25 11.646C5.25 11.2318 4.91421 10.896 4.5 10.896V12.396ZM2.5 10.896C2.08579 10.896 1.75 11.2318 1.75 11.646C1.75 12.0602 2.08579 12.396 2.5 12.396V10.896ZM19.2449 5.53371C19.5397 5.24269 19.5427 4.76783 19.2517 4.47307C18.9607 4.17831 18.4858 4.17528 18.1911 4.46629L19.2449 5.53371ZM16.7731 5.86629C16.4783 6.15731 16.4753 6.63217 16.7663 6.92693C17.0573 7.22169 17.5322 7.22472 17.8269 6.93371L16.7731 5.86629ZM7.22768 17.426C7.52203 17.1345 7.52439 16.6597 7.23296 16.3653C6.94153 16.071 6.46666 16.0686 6.17231 16.36L7.22768 17.426ZM4.75831 17.76C4.46397 18.0515 4.46161 18.5263 4.75304 18.8207C5.04447 19.115 5.51934 19.1174 5.81369 18.826L4.75831 17.76ZM18.1933 18.826C18.4877 19.1174 18.9625 19.115 19.254 18.8207C19.5454 18.5263 19.543 18.0515 19.2487 17.76L18.1933 18.826ZM17.8347 16.36C17.5403 16.0686 17.0655 16.071 16.774 16.3653C16.4826 16.6597 16.485 17.1345 16.7793 17.426L17.8347 16.36ZM6.17307 6.93371C6.46783 7.22472 6.94269 7.22169 7.23371 6.92693C7.52472 6.63217 7.52169 6.15731 7.22693 5.86629L6.17307 6.93371ZM5.80893 4.46629C5.51417 4.17528 5.03931 4.17831 4.74829 4.47307C4.45728 4.76783 4.46031 5.24269 4.75507 5.53371L5.80893 4.46629ZM13.667 15.561H10.333V17.061H13.667V15.561ZM21.5 10.896H19.5V12.396H21.5V10.896ZM4.5 10.896H2.5V12.396H4.5V10.896ZM18.1911 4.46629L16.7731 5.86629L17.8269 6.93371L19.2449 5.53371L18.1911 4.46629ZM6.17231 16.36L4.75831 17.76L5.81369 18.826L7.22768 17.426L6.17231 16.36ZM19.2487 17.76L17.8347 16.36L16.7793 17.426L18.1933 18.826L19.2487 17.76ZM7.22693 5.86629L5.80893 4.46629L4.75507 5.53371L6.17307 6.93371L7.22693 5.86629Z" fill="#323845"/>
</svg>